# xmcd
#
# Track frame offsets:
#	150
#	13377
#	28965
#	51802
#	70890
#	94852
#	112685
#	138540
#	153165
#	166765
#	193540
#	217625
#	237027
#	252090
#	267827
#	285627
#	298390
#	312215
#
# Disc length: 4441 seconds
#
# Revision: 1
# Processed by: cddbd v1.5.1PL0 Copyright (c) Steve Scherf et al.
# Submitted via: audiograbber 1.83.01
#
DISCID=fb115712
DTITLE=Free - The Free Story
DYEAR=1989
DGENRE=
TTITLE0=I'm A Lover
TTITLE1=I'll Be Creepin'
TTITLE2=Mourning Sad Morning
TTITLE3=All Right Now
TTITLE4=Heavey Load
TTITLE5=Fire And Water
TTITLE6=Be My Friend
TTITLE7=The Stealer
TTITLE8=Soon I Will Be Gone
TTITLE9=Mr. Big
TTITLE10=The Hunter
TTITLE11=Get Where I Belong
TTITLE12=Travelling Man
TTITLE13=Just For The Box
TTITLE14=Lady
TTITLE15=My Brother Jake
TTITLE16=Sail On
TTITLE17=Come Together In The Morning
EXTD=
EXTT0=
EXTT1=
EXTT2=
EXTT3=
EXTT4=
EXTT5=
EXTT6=
EXTT7=
EXTT8=
EXTT9=
EXTT10=
EXTT11=
EXTT12=
EXTT13=
EXTT14=
EXTT15=
EXTT16=
EXTT17=
PLAYORDER=
